<svg width="13" height="14" viewBox="0 0 13 14" fill="none" xmlns="http://www.w3.org/2000/svg">
<path d="M7.3125 6.1875H12.1875C12.403 6.1875 12.6097 6.2731 12.762 6.42548C12.9144 6.57785 13 6.78451 13 7C13 7.21549 12.9144 7.42215 12.762 7.57452C12.6097 7.7269 12.403 7.8125 12.1875 7.8125H7.3125V12.6875C7.3125 12.903 7.2269 13.1097 7.07452 13.262C6.92215 13.4144 6.71549 13.5 6.5 13.5C6.28451 13.5 6.07785 13.4144 5.92548 13.262C5.7731 13.1097 5.6875 12.903 5.6875 12.6875V7.8125H0.8125C0.597012 7.8125 0.390349 7.7269 0.237976 7.57452C0.0856026 7.42215 0 7.21549 0 7C0 6.78451 0.0856026 6.57785 0.237976 6.42548C0.390349 6.2731 0.597012 6.1875 0.8125 6.1875H5.6875V1.3125C5.6875 1.09701 5.7731 0.890349 5.92548 0.737976C6.07785 0.585603 6.28451 0.5 6.5 0.5C6.71549 0.5 6.92215 0.585603 7.07452 0.737976C7.2269 0.890349 7.3125 1.09701 7.3125 1.3125V6.1875Z" fill="#0036A0"/>
</svg>
