<svg width="87" height="84" viewBox="0 0 87 84" fill="none" xmlns="http://www.w3.org/2000/svg">
<g filter="url(#filter0_i_2001_1520)">
<rect x="17" y="1" width="69" height="69" rx="14" fill="#003FB7" fill-opacity="0.1"/>
</g>
<rect x="17" y="1" width="69" height="69" rx="14" stroke="url(#paint0_linear_2001_1520)" stroke-width="0.5"/>
<g clip-path="url(#clip0_2001_1520)">
<path d="M19.0229 62.6518H38.3366V66.242H19.0229V62.6518ZM19.0229 56.2818H34.9588V59.872H19.0229V56.2818ZM19.0229 49.9053H38.3366V53.4933H19.0229V49.9053ZM47.6294 69.8278C47.5118 69.6165 47.4501 69.3786 47.4501 69.1367C47.4501 68.8948 47.5118 68.6569 47.6294 68.4455C47.9111 67.9298 48.1754 67.4142 48.4224 66.8682C48.4632 66.7784 48.4807 66.6797 48.4733 66.5814C48.4659 66.483 48.4338 66.3881 48.3801 66.3054C48.3263 66.2227 48.2526 66.1549 48.1657 66.1083C48.0788 66.0616 47.9816 66.0375 47.8829 66.0383H43.1899C42.9527 66.0373 42.719 66.0956 42.5101 66.208C42.3012 66.3204 42.1238 66.4833 41.9939 66.6818C41.3797 67.6244 40.6704 68.5014 39.8771 69.2992C38.3976 70.7851 36.6381 71.963 34.7006 72.7648C32.763 73.5667 30.6857 73.9764 28.5888 73.9705C26.4924 73.9758 24.4158 73.5655 22.4789 72.7633C20.5421 71.9612 18.7835 70.783 17.3048 69.297C15.8182 67.8179 14.6396 66.0585 13.8374 64.1209C13.0352 62.1833 12.6253 60.1058 12.6313 58.0087C12.6313 53.7425 14.2909 49.7298 17.3026 46.7182C18.7822 45.2322 20.5416 44.0543 22.4792 43.2525C24.4167 42.4507 26.494 42.0409 28.5909 42.0468C32.8528 42.0468 36.8654 43.7065 39.8793 46.7203C40.6766 47.5198 41.3873 48.4168 41.9939 49.3355C42.2539 49.7385 42.7024 49.979 43.1878 49.979H47.8829C47.981 49.9783 48.0773 49.9533 48.1633 49.9062C48.2492 49.8591 48.3221 49.7913 48.3754 49.709C48.4287 49.6267 48.4607 49.5325 48.4685 49.4348C48.4764 49.337 48.4598 49.2389 48.4203 49.1492C48.1784 48.6128 47.9146 48.0865 47.6294 47.5718C47.5136 47.3599 47.4528 47.1222 47.4528 46.8807C47.4528 46.6391 47.5136 46.4014 47.6294 46.1895L49.2219 43.3035C49.3718 43.0317 49.4295 42.7186 49.3865 42.4113C49.3436 42.1039 49.2022 41.8187 48.9836 41.5983L45.0056 37.6203C44.786 37.4002 44.5007 37.2578 44.1929 37.2148C43.8852 37.1718 43.5718 37.2305 43.3004 37.382L40.4079 38.981C40.1958 39.0973 39.9576 39.1576 39.7156 39.156C39.4738 39.1545 39.2362 39.0913 39.0256 38.9723C37.6483 38.2179 36.1912 37.6191 34.6814 37.187C34.4491 37.1212 34.2373 36.9974 34.066 36.8272C33.8946 36.6571 33.7694 36.4461 33.7021 36.2142L32.7834 33.04C32.6973 32.7413 32.5167 32.4785 32.2686 32.291C32.0206 32.1035 31.7185 32.0014 31.4076 32H25.7786C25.4674 31.9994 25.1647 32.1008 24.9166 32.2886C24.6685 32.4764 24.4888 32.7403 24.4049 33.04L23.4928 36.2033C23.4251 36.4348 23.2998 36.6454 23.1285 36.8152C22.9572 36.9849 22.7455 37.1084 22.5134 37.174C21.0033 37.6138 19.5451 38.214 18.1693 38.968C17.7359 39.2063 17.2203 39.2063 16.7869 38.9745L13.8879 37.382C13.6161 37.2322 13.3031 37.1744 12.9957 37.2174C12.6883 37.2604 12.4031 37.4017 12.1828 37.6203L8.20694 41.6027C7.98768 41.8224 7.84581 42.1077 7.80281 42.4153C7.75981 42.723 7.81801 43.0363 7.96861 43.3078L9.56544 46.2003C9.80378 46.6337 9.79728 47.1493 9.55894 47.5827C8.80377 48.9599 8.20424 50.4169 7.77144 51.9268C7.70586 52.1589 7.58239 52.3706 7.4126 52.5419C7.24281 52.7132 7.03229 52.8385 6.80078 52.9062L3.63744 53.8162C3.3391 53.9027 3.07679 54.0835 2.88972 54.3315C2.70265 54.5795 2.60088 54.8814 2.59961 55.192V60.8232C2.59961 61.458 3.01778 62.0278 3.63961 62.199L6.80078 63.109C7.03254 63.1768 7.24324 63.3025 7.41304 63.4742C7.58285 63.6459 7.70618 63.858 7.77144 64.0905C8.21344 65.6007 8.81144 67.0588 9.56544 68.4325C9.80378 68.8658 9.80378 69.3815 9.57411 69.8192L7.97511 72.7095C7.82581 72.9811 7.76835 73.2937 7.81131 73.6006C7.85426 73.9075 7.99533 74.1923 8.21344 74.4125L12.1893 78.3927C12.4089 78.6128 12.6942 78.7552 13.002 78.7982C13.3097 78.8412 13.623 78.7825 13.8944 78.631L16.7869 77.032C17.2203 76.7937 17.7359 76.8002 18.1693 77.0385C19.5465 77.7937 21.0035 78.3932 22.5134 78.826C22.9836 78.9603 23.3584 79.3243 23.4928 79.7967L24.4028 82.96C24.5826 83.5732 25.1438 84 25.7786 84H31.4076C31.7191 84.0011 32.0224 83.8999 32.271 83.7121C32.5195 83.5242 32.6995 83.26 32.7834 82.96L33.6956 79.7967C33.7633 79.5652 33.8886 79.3546 34.0599 79.1848C34.2312 79.0151 34.4428 78.8916 34.6749 78.826C36.1832 78.3876 37.6391 77.786 39.0169 77.032C39.2287 76.9154 39.4663 76.8535 39.7081 76.852C39.9499 76.8505 40.1882 76.9094 40.4014 77.0233L43.2939 78.6245C43.8551 78.9278 44.5506 78.8325 44.9969 78.3862L48.9749 74.406C49.1942 74.1863 49.3361 73.901 49.3791 73.5934C49.4221 73.2857 49.3639 72.9724 49.2133 72.7008L47.6294 69.8278Z" fill="#0036A0"/>
</g>
<defs>
<filter id="filter0_i_2001_1520" x="16.75" y="0.75" width="69.5" height="73.5" filterUnits="userSpaceOnUse" color-interpolation-filters="sRGB">
<feFlood flood-opacity="0" result="BackgroundImageFix"/>
<feBlend mode="normal" in="SourceGraphic" in2="BackgroundImageFix" result="shape"/>
<feColorMatrix in="SourceAlpha" type="matrix" values="0 0 0 0 0 0 0 0 0 0 0 0 0 0 0 0 0 0 127 0" result="hardAlpha"/>
<feOffset dy="4"/>
<feGaussianBlur stdDeviation="4"/>
<feComposite in2="hardAlpha" operator="arithmetic" k2="-1" k3="1"/>
<feColorMatrix type="matrix" values="0 0 0 0 1 0 0 0 0 1 0 0 0 0 1 0 0 0 0.05 0"/>
<feBlend mode="normal" in2="shape" result="effect1_innerShadow_2001_1520"/>
</filter>
<linearGradient id="paint0_linear_2001_1520" x1="17" y1="-5.76471" x2="79.2353" y2="70" gradientUnits="userSpaceOnUse">
<stop stop-color="white" stop-opacity="0.64"/>
<stop offset="1" stop-color="white" stop-opacity="0"/>
</linearGradient>
<clipPath id="clip0_2001_1520">
<rect width="52" height="52" fill="white" transform="translate(0 32)"/>
</clipPath>
</defs>
</svg>
