<svg width="87" height="83" viewBox="0 0 87 83" fill="none" xmlns="http://www.w3.org/2000/svg">
<g filter="url(#filter0_i_2001_1186)">
<rect x="17" y="1" width="69" height="69" rx="14" fill="#003FB7" fill-opacity="0.1"/>
</g>
<rect x="17" y="1" width="69" height="69" rx="14" stroke="url(#paint0_linear_2001_1186)" stroke-width="0.5"/>
<g clip-path="url(#clip0_2001_1186)">
<path d="M13.8125 23C14.2601 23 14.6893 23.1778 15.0057 23.4943C15.3222 23.8107 15.5 24.2399 15.5 24.6875V26.375H42.5V24.6875C42.5 24.2399 42.6778 23.8107 42.9943 23.4943C43.3107 23.1778 43.7399 23 44.1875 23C44.6351 23 45.0643 23.1778 45.3807 23.4943C45.6972 23.8107 45.875 24.2399 45.875 24.6875V26.375H49.25C51.0402 26.375 52.7571 27.0862 54.023 28.352C55.2888 29.6179 56 31.3348 56 33.125V70.25C56 72.0402 55.2888 73.7571 54.023 75.023C52.7571 76.2888 51.0402 77 49.25 77H8.75C6.95979 77 5.2429 76.2888 3.97703 75.023C2.71116 73.7571 2 72.0402 2 70.25V33.125C2 31.3348 2.71116 29.6179 3.97703 28.352C5.2429 27.0862 6.95979 26.375 8.75 26.375H12.125V24.6875C12.125 24.2399 12.3028 23.8107 12.6193 23.4943C12.9357 23.1778 13.3649 23 13.8125 23ZM5.375 36.5V70.25C5.375 71.1451 5.73058 72.0035 6.36351 72.6365C6.99645 73.2694 7.85489 73.625 8.75 73.625H49.25C50.1451 73.625 51.0035 73.2694 51.6365 72.6365C52.2694 72.0035 52.625 71.1451 52.625 70.25V36.5H5.375Z" fill="#0036A0"/>
<path d="M20.08 62.288C18.992 62.288 18 62.096 17.104 61.712C16.224 61.312 15.52 60.712 14.992 59.912C14.464 59.112 14.184 58.112 14.152 56.912H16.672C16.704 57.808 17.008 58.568 17.584 59.192C18.176 59.8 19.008 60.104 20.08 60.104C21.104 60.104 21.888 59.824 22.432 59.264C22.976 58.688 23.248 57.976 23.248 57.128C23.248 56.104 22.88 55.344 22.144 54.848C21.424 54.352 20.536 54.104 19.48 54.104H18.232V51.992H19.504C20.448 51.992 21.208 51.768 21.784 51.32C22.376 50.872 22.672 50.24 22.672 49.424C22.672 48.736 22.44 48.176 21.976 47.744C21.528 47.312 20.888 47.096 20.056 47.096C19.192 47.096 18.512 47.352 18.016 47.864C17.52 48.36 17.248 48.984 17.2 49.736H14.68C14.712 48.76 14.952 47.912 15.4 47.192C15.864 46.472 16.496 45.912 17.296 45.512C18.096 45.112 19.016 44.912 20.056 44.912C21.176 44.912 22.112 45.112 22.864 45.512C23.632 45.896 24.208 46.424 24.592 47.096C24.992 47.752 25.192 48.472 25.192 49.256C25.192 50.152 24.944 50.936 24.448 51.608C23.952 52.28 23.288 52.728 22.456 52.952C23.416 53.16 24.208 53.632 24.832 54.368C25.456 55.088 25.768 56.024 25.768 57.176C25.768 58.104 25.552 58.96 25.12 59.744C24.688 60.512 24.048 61.128 23.2 61.592C22.352 62.056 21.312 62.288 20.08 62.288ZM35.6271 62.288C34.1071 62.288 32.7951 61.928 31.6911 61.208C30.6031 60.472 29.7631 59.456 29.1711 58.16C28.5951 56.848 28.3071 55.328 28.3071 53.6C28.3071 51.872 28.5951 50.36 29.1711 49.064C29.7631 47.752 30.6031 46.736 31.6911 46.016C32.7951 45.28 34.1071 44.912 35.6271 44.912C37.1471 44.912 38.4511 45.28 39.5391 46.016C40.6271 46.736 41.4591 47.752 42.0351 49.064C42.6271 50.36 42.9231 51.872 42.9231 53.6C42.9231 55.328 42.6271 56.848 42.0351 58.16C41.4591 59.456 40.6271 60.472 39.5391 61.208C38.4511 61.928 37.1471 62.288 35.6271 62.288ZM35.6271 60.008C36.5391 60.008 37.3471 59.752 38.0511 59.24C38.7711 58.728 39.3311 57.992 39.7311 57.032C40.1311 56.072 40.3311 54.928 40.3311 53.6C40.3311 52.272 40.1311 51.128 39.7311 50.168C39.3311 49.208 38.7711 48.472 38.0511 47.96C37.3471 47.448 36.5391 47.192 35.6271 47.192C34.6991 47.192 33.8831 47.448 33.1791 47.96C32.4751 48.472 31.9231 49.208 31.5231 50.168C31.1231 51.128 30.9231 52.272 30.9231 53.6C30.9231 54.928 31.1231 56.072 31.5231 57.032C31.9231 57.992 32.4751 58.728 33.1791 59.24C33.8831 59.752 34.6991 60.008 35.6271 60.008Z" fill="#0036A0"/>
</g>
<defs>
<filter id="filter0_i_2001_1186" x="16.75" y="0.75" width="69.5" height="73.5" filterUnits="userSpaceOnUse" color-interpolation-filters="sRGB">
<feFlood flood-opacity="0" result="BackgroundImageFix"/>
<feBlend mode="normal" in="SourceGraphic" in2="BackgroundImageFix" result="shape"/>
<feColorMatrix in="SourceAlpha" type="matrix" values="0 0 0 0 0 0 0 0 0 0 0 0 0 0 0 0 0 0 127 0" result="hardAlpha"/>
<feOffset dy="4"/>
<feGaussianBlur stdDeviation="4"/>
<feComposite in2="hardAlpha" operator="arithmetic" k2="-1" k3="1"/>
<feColorMatrix type="matrix" values="0 0 0 0 1 0 0 0 0 1 0 0 0 0 1 0 0 0 0.05 0"/>
<feBlend mode="normal" in2="shape" result="effect1_innerShadow_2001_1186"/>
</filter>
<linearGradient id="paint0_linear_2001_1186" x1="17" y1="-5.76471" x2="79.2353" y2="70" gradientUnits="userSpaceOnUse">
<stop stop-color="white" stop-opacity="0.64"/>
<stop offset="1" stop-color="white" stop-opacity="0"/>
</linearGradient>
<clipPath id="clip0_2001_1186">
<rect width="54" height="54" fill="white" transform="translate(2 23)"/>
</clipPath>
</defs>
</svg>
