<svg width="87" height="87" viewBox="0 0 87 87" fill="none" xmlns="http://www.w3.org/2000/svg">
<g filter="url(#filter0_i_2001_1134)">
<rect x="17" y="1" width="69" height="69" rx="14" fill="#003FB7" fill-opacity="0.1"/>
</g>
<rect x="17" y="1" width="69" height="69" rx="14" stroke="url(#paint0_linear_2001_1134)" stroke-width="0.5"/>
<g clip-path="url(#clip0_2001_1134)">
<path d="M56.888 33.6667H7.11024C6.16725 33.6667 5.26288 34.0413 4.59609 34.7081C3.92929 35.3749 3.55469 36.2792 3.55469 37.2222V72.7778C3.55469 73.7208 3.92929 74.6251 4.59609 75.2919C5.26288 75.9587 6.16725 76.3333 7.11024 76.3333H33.7769L34.7902 75.0889L36.4436 73.0622L36.2836 72.7778H7.11024V37.2222H56.888V52.44C58.2386 53.3143 59.4392 54.4009 60.4436 55.6578V37.2222C60.4436 36.2792 60.069 35.3749 59.4022 34.7081C58.7354 34.0413 57.831 33.6667 56.888 33.6667Z" fill="#0036A0"/>
<path d="M11.9316 45.6949C11.9316 45.1426 12.3794 44.6949 12.9316 44.6949H41.3045C41.8568 44.6949 42.3045 45.1426 42.3045 45.6949V45.8644C42.3045 46.4167 41.8568 46.8644 41.3045 46.8644H12.9316C12.3794 46.8644 11.9316 46.4167 11.9316 45.8644V45.6949Z" fill="#0036A0"/>
<path d="M11.9316 52.2034C11.9316 51.6511 12.3794 51.2034 12.9316 51.2034H30.4571C31.0093 51.2034 31.4571 51.6511 31.4571 52.2034V52.3729C31.4571 52.9252 31.0093 53.3729 30.4571 53.3729H12.9316C12.3794 53.3729 11.9316 52.9252 11.9316 52.3729V52.2034Z" fill="#0036A0"/>
<path d="M11.9316 58.7119C11.9316 58.1596 12.3794 57.7119 12.9316 57.7119H29.3723C29.9246 57.7119 30.3723 58.1596 30.3723 58.7119V58.8813C30.3723 59.4336 29.9246 59.8813 29.3723 59.8813H12.9316C12.3794 59.8813 11.9316 59.4336 11.9316 58.8813V58.7119Z" fill="#0036A0"/>
<path d="M48.8183 53.6311C46.5434 53.6131 44.3159 54.2817 42.4269 55.5497C40.538 56.8176 39.0755 58.6259 38.2306 60.7382C37.3856 62.8506 37.1976 65.1686 37.691 67.3895C38.1844 69.6104 39.3363 71.6308 40.9961 73.1867L37.5472 77.4L39.1472 83.8178L45.6539 75.8889C47.7135 76.4979 49.9054 76.4979 51.965 75.8889L58.4717 83.8178L60.0717 77.4L56.6228 73.1867C58.2826 71.6308 59.4345 69.6104 59.9279 67.3895C60.4213 65.1686 60.2332 62.8506 59.3883 60.7382C58.5434 58.6259 57.0809 56.8176 55.1919 55.5497C53.303 54.2817 51.0755 53.6131 48.8005 53.6311H48.8183ZM48.8183 72.6178C47.3076 72.5968 45.8368 72.1296 44.5909 71.2749C43.3449 70.4203 42.3795 69.2164 41.8159 67.8146C41.2522 66.4128 41.1156 64.8757 41.4232 63.3964C41.7308 61.9172 42.4689 60.5619 43.5446 59.501C44.6203 58.44 45.9856 57.7208 47.469 57.4337C48.9523 57.1466 50.4874 57.3044 51.8813 57.8874C53.2752 58.4703 54.4656 59.4523 55.3029 60.71C56.1403 61.9676 56.5871 63.4447 56.5872 64.9556C56.5684 67.0004 55.7405 68.9546 54.2846 70.3905C52.8286 71.8264 50.8632 72.6273 48.8183 72.6178Z" fill="#0036A0"/>
</g>
<defs>
<filter id="filter0_i_2001_1134" x="16.75" y="0.75" width="69.5" height="73.5" filterUnits="userSpaceOnUse" color-interpolation-filters="sRGB">
<feFlood flood-opacity="0" result="BackgroundImageFix"/>
<feBlend mode="normal" in="SourceGraphic" in2="BackgroundImageFix" result="shape"/>
<feColorMatrix in="SourceAlpha" type="matrix" values="0 0 0 0 0 0 0 0 0 0 0 0 0 0 0 0 0 0 127 0" result="hardAlpha"/>
<feOffset dy="4"/>
<feGaussianBlur stdDeviation="4"/>
<feComposite in2="hardAlpha" operator="arithmetic" k2="-1" k3="1"/>
<feColorMatrix type="matrix" values="0 0 0 0 1 0 0 0 0 1 0 0 0 0 1 0 0 0 0.05 0"/>
<feBlend mode="normal" in2="shape" result="effect1_innerShadow_2001_1134"/>
</filter>
<linearGradient id="paint0_linear_2001_1134" x1="17" y1="-5.76471" x2="79.2353" y2="70" gradientUnits="userSpaceOnUse">
<stop stop-color="white" stop-opacity="0.64"/>
<stop offset="1" stop-color="white" stop-opacity="0"/>
</linearGradient>
<clipPath id="clip0_2001_1134">
<rect width="64" height="64" fill="white" transform="translate(0 23)"/>
</clipPath>
</defs>
</svg>
