<svg width="20" height="21" viewBox="0 0 20 21" fill="none" xmlns="http://www.w3.org/2000/svg">
<path d="M15.5073 7.47697C15.2999 7.2782 15.0194 7.16663 14.727 7.16663C14.4346 7.16663 14.1541 7.2782 13.9468 7.47697L9.97363 11.255L6.05582 7.47697C5.84846 7.2782 5.56796 7.16663 5.27558 7.16663C4.9832 7.16663 4.7027 7.2782 4.49534 7.47697C4.3916 7.57619 4.30927 7.69423 4.25308 7.82428C4.1969 7.95434 4.16797 8.09383 4.16797 8.23472C4.16797 8.37561 4.1969 8.51511 4.25308 8.64516C4.30927 8.77521 4.3916 8.89325 4.49534 8.99247L9.18786 13.5176C9.29074 13.6176 9.41315 13.697 9.54801 13.7512C9.68288 13.8054 9.82753 13.8333 9.97363 13.8333C10.1197 13.8333 10.2644 13.8054 10.3993 13.7512C10.5341 13.697 10.6565 13.6176 10.7594 13.5176L15.5073 8.99247C15.611 8.89325 15.6933 8.77521 15.7495 8.64516C15.8057 8.51511 15.8346 8.37561 15.8346 8.23472C15.8346 8.09383 15.8057 7.95434 15.7495 7.82428C15.6933 7.69423 15.611 7.57619 15.5073 7.47697Z" fill="#00D7FF"/>
</svg>
