<svg width="12" height="12" viewBox="0 0 12 12" fill="none" xmlns="http://www.w3.org/2000/svg">
<g clip-path="url(#clip0_2067_924)">
<path d="M7.57888 10.7798C6.01618 12.3425 3.48474 12.3425 1.92203 10.7798C0.359324 9.21714 0.359324 6.68569 1.92203 5.12299L6.16467 0.880348C7.33847 -0.293449 9.23351 -0.293449 10.4073 0.880348C11.5811 2.05415 11.5811 3.94919 10.4073 5.12299L6.16467 9.36563C5.38685 10.1434 4.11406 10.1434 3.33624 9.36563C2.55843 8.58781 2.55843 7.31502 3.33624 6.5372L7.57888 2.29456L8.28599 3.00167L4.04335 7.24431C3.65444 7.63322 3.65444 8.26961 4.04335 8.65852C4.43226 9.04743 5.06865 9.04743 5.45756 8.65852L9.7002 4.41588C10.478 3.63806 10.478 2.36527 9.7002 1.58745C8.92239 0.809637 7.64959 0.809637 6.87178 1.58745L2.62914 5.8301C1.45534 7.00389 1.45534 8.89894 2.62914 10.0727C3.80293 11.2465 5.69798 11.2465 6.87178 10.0727L10.4073 6.5372L11.1144 7.24431L7.57888 10.7798Z" fill="#828282"/>
</g>
<defs>
<clipPath id="clip0_2067_924">
<rect width="12" height="12" fill="white"/>
</clipPath>
</defs>
</svg>
