<svg width="213" height="63" viewBox="0 0 213 63" fill="none" xmlns="http://www.w3.org/2000/svg">
<g clip-path="url(#clip0_879_4661)">
<path d="M32.0734 14.8953C32.0734 11.4989 30.4125 8.85729 25.5645 8.85729H8.91054V29.2357H13.5341V22.0655H24.2178C26.6194 22.0655 27.2478 22.7537 27.2478 25.1068V29.2357H31.8714V24.3742C31.8714 21.9545 30.9961 20.5338 29.0659 20.0455C31.0634 19.4017 32.0734 17.4704 32.0734 14.8953ZM24.936 17.7812H13.5341V13.1638H24.9585C26.6643 13.1638 27.4723 14.074 27.4723 15.4281C27.4498 16.76 26.7765 17.7812 24.936 17.7812ZM210.913 33.7643H212.618V54.1427H207.995V39.6913L198.456 54.1427H193.136V33.7643H197.76V47.7051L204.718 37.0275C206.513 34.3192 208.062 33.7643 210.913 33.7643ZM120.663 29.2357V24.8848C122.548 24.8848 122.997 23.7526 123.401 19.9789L124.658 8.85729H141.222V29.2357H136.598V13.1638H128.63L127.822 20.9556C127.127 27.6596 125.286 29.4799 120.663 29.2357ZM0 63H40.7595V0H0V63ZM4.44405 4.39535H36.293V58.6047H4.44405V4.39535ZM27.2254 33.7643H31.849V54.1427H17.058C11.1326 54.1427 8.88809 51.945 8.88809 46.0624V33.7643H13.5117V46.1956C13.5117 48.7928 14.5442 49.8584 16.9457 49.8584H27.2254V33.7643ZM150.177 22.4207H160.39V29.2579H165.013V8.85729H153.14C147.327 8.85729 145.554 10.4334 145.554 16.3605V29.2357H150.177V22.4207ZM153.14 13.1638H160.39V18.1808H150.177V16.3827C150.177 14.0518 150.469 13.1638 153.14 13.1638ZM98.0159 21.7326V16.3827C98.0159 10.5222 99.6768 8.87949 105.602 8.87949H117.7V13.1638H105.378C102.976 13.1638 102.64 13.5634 102.64 16.1607V16.8488H114.333V21.0888H102.64V21.9989C102.64 24.5962 102.976 24.9958 105.378 24.9958H117.879V29.2801H105.602C99.6544 29.2357 98.0159 27.5486 98.0159 21.7326ZM205.391 8.85729H200.319C194.438 8.85729 192.732 10.5 192.732 16.3605V21.7326C192.732 27.5486 195.022 29.2357 200.902 29.2357H204.83C210.756 29.2357 213 27.5486 213 21.7326V16.3827C212.978 10.5 211.317 8.85729 205.391 8.85729ZM208.354 21.7326C208.354 24.3298 207.793 24.9514 205.391 24.9514H200.319C197.917 24.9514 197.356 24.3298 197.356 21.7326V16.3827C197.356 13.7854 197.917 13.1638 200.319 13.1638H205.391C207.793 13.1638 208.354 13.7854 208.354 16.3827V21.7326ZM129.169 33.7643H141.85V36.2949C141.85 38.3372 141.671 40.0243 141.222 41.556H137.294V38.0486H129.192C126.79 38.0486 126.229 38.6702 126.229 41.2674V46.6395C126.229 49.2368 126.79 49.8584 129.192 49.8584H141.85V54.1427H129.169C123.289 54.1427 121.583 52.4556 121.583 46.6395V41.2674C121.583 35.407 123.289 33.7643 129.169 33.7643ZM92.8087 8.85729H75.9752L74.9428 19.1797C74.4266 24.0856 73.6859 24.8848 72.3168 24.8848H72.0474V31.1448H76.4466L76.6261 28.5476H90.2052L90.3847 31.1448H94.7839V24.8182H92.8536V8.85729H92.8087ZM80.0377 13.1638H88.1851V24.352H78.287C78.9155 23.2643 79.1848 21.7326 79.3868 19.7791L80.0377 13.1638ZM110.742 33.7643H105.266C99.385 33.7643 97.6792 35.407 97.6792 41.2674V46.6395C97.6792 52.4556 99.385 54.1427 105.266 54.1427H110.742C116.667 54.1427 118.328 52.4556 118.328 46.6395V41.2674C118.328 35.407 116.667 33.7643 110.742 33.7643ZM113.705 46.6395C113.705 49.2368 113.144 49.8584 110.742 49.8584H105.266C102.864 49.8584 102.303 49.2368 102.303 46.6395V41.2674C102.303 38.6702 102.864 38.0486 105.266 38.0486H110.742C113.144 38.0486 113.705 38.6702 113.705 41.2674V46.6395ZM152.691 33.7643H165.417V36.2949C165.417 38.3372 165.238 40.0243 164.789 41.556H160.861V38.0486H152.691C150.29 38.0486 149.728 38.6702 149.728 41.2674V46.6395C149.728 49.2368 150.29 49.8584 152.691 49.8584H165.417V54.1427H152.691C146.811 54.1427 145.105 52.4556 145.105 46.6395V41.2674C145.105 35.407 146.811 33.7643 152.691 33.7643ZM66.1669 43.3763C67.2443 42.7326 68.142 41.334 68.142 39.1808C68.142 36.4059 66.5485 33.7643 61.8126 33.7643H49.715V54.1427H62.284C66.8403 54.1427 69.0847 51.834 69.0847 48.0381C69.0623 45.5074 67.6034 43.9979 66.1669 43.3763ZM63.5409 39.8689C63.5409 41.1121 62.9124 41.778 61.3189 41.778H54.361V38.1152H61.3189C62.9124 38.1152 63.5409 38.6702 63.5409 39.8689ZM62.3289 49.8584H54.3386V45.907H62.3289C63.8776 45.907 64.4387 46.6395 64.4387 47.8161C64.4387 49.0148 63.8776 49.8584 62.3289 49.8584ZM184.203 8.85729H188.827V29.2357H184.203V21.0666H173.991V29.2579H169.368V8.85729H173.991V16.76H184.203V8.85729ZM56.6279 8.85729H69.2418V11.3879C69.2418 13.4302 69.0623 15.1173 68.6134 16.649H64.6856V13.1638H56.6279C54.2263 13.1638 53.6652 13.7854 53.6652 16.3827V21.7548C53.6652 24.352 54.2263 24.9736 56.6279 24.9736H69.2418V29.2579H56.6279C50.7474 29.2579 49.0416 27.5708 49.0416 21.7548V16.3827C49.0416 10.5 50.7474 8.85729 56.6279 8.85729ZM187.121 33.7643H188.827V54.1427H184.203V39.6913L174.664 54.1427H169.345V33.7643H173.969V47.7051L180.927 37.0275C182.722 34.3192 184.271 33.7643 187.121 33.7643ZM87.624 33.7643H74.1572V37.7822L76.5588 38.1152V54.1427H81.1824V48.8816H87.624C92.9434 48.8816 94.7614 46.2178 94.7614 42.111V40.5349C94.7614 36.6501 93.0332 33.7643 87.624 33.7643ZM90.1827 41.9556C90.1827 43.8647 89.442 44.6195 87.624 44.6195H81.1824V38.0708H87.624C89.442 38.0708 90.1827 38.981 90.1827 40.7347V41.9556Z" fill="white"/>
</g>
<defs>
<clipPath id="clip0_879_4661">
<rect width="213" height="63" fill="white"/>
</clipPath>
</defs>
</svg>
