<svg width="20" height="20" viewBox="0 0 20 20" fill="none" xmlns="http://www.w3.org/2000/svg">
<path d="M4.49273 13.023C4.70009 13.2217 4.98059 13.3333 5.27297 13.3333C5.56536 13.3333 5.84586 13.2217 6.05322 13.023L10.0264 9.2449L13.9442 13.023C14.1515 13.2217 14.432 13.3333 14.7244 13.3333C15.0168 13.3333 15.2973 13.2217 15.5047 13.023C15.6084 12.9238 15.6907 12.8057 15.7469 12.6757C15.8031 12.5456 15.832 12.4061 15.832 12.2652C15.832 12.1243 15.8031 11.9848 15.7469 11.8548C15.6907 11.7247 15.6084 11.6067 15.5047 11.5075L10.8121 6.98234C10.7093 6.88231 10.5869 6.80291 10.452 6.74873C10.3171 6.69454 10.1725 6.66665 10.0264 6.66665C9.88026 6.66665 9.73561 6.69454 9.60074 6.74873C9.46588 6.80291 9.34347 6.88231 9.24059 6.98234L4.49273 11.5075C4.389 11.6067 4.30667 11.7247 4.25048 11.8548C4.19429 11.9848 4.16536 12.1243 4.16536 12.2652C4.16536 12.4061 4.19429 12.5456 4.25048 12.6757C4.30667 12.8057 4.389 12.9238 4.49273 13.023Z" fill="#00D7FF"/>
</svg>
